<svg width="121" height="129" viewBox="0 0 121 129" fill="none" xmlns="http://www.w3.org/2000/svg">
<g clip-path="url(#clip0_4001_2524)">
<path d="M120.5 69C120.504 82.3375 116.064 95.2962 107.881 105.829C99.6989 116.361 88.2402 123.867 75.3157 127.16C62.3912 130.454 48.7378 129.347 36.5126 124.015C24.2873 118.683 14.1872 109.429 7.808 97.716C3.43667 89.6897 0.956682 80.7709 0.557315 71.6402C0.157949 62.5095 1.84976 53.4082 5.50362 45.0309C9.15749 36.6537 14.6768 29.2218 21.6405 23.3026C28.6041 17.3833 36.8279 13.1331 45.6843 10.8764C54.5408 8.61957 63.7957 8.41585 72.7429 10.2807C81.69 12.1456 90.0929 16.0298 97.3103 21.6369C104.528 27.244 110.369 34.4258 114.388 42.6342C118.407 50.8425 120.497 59.8606 120.5 69Z" fill="#F0F0F0"/>
<path d="M113.192 97.716C108.033 107.188 100.417 115.094 91.1444 120.603C81.8717 126.111 71.2856 129.018 60.5001 129.018C49.7146 129.018 39.1285 126.111 29.8558 120.603C20.5831 115.094 12.9667 107.188 7.80811 97.716C20.5041 88.8 39.4041 83.124 60.5001 83.124C81.5961 83.124 100.496 88.8 113.192 97.716Z" fill="#DFDFDF"/>
<path d="M81.6501 91.056C81.6501 97.458 71.9661 102.654 60.0081 102.654C48.0501 102.654 38.3721 97.458 38.3721 91.056C38.3721 87.576 41.2221 85.248 45.7461 83.856V62.322H74.3001V83.844C78.7941 85.248 81.6501 87.6 81.6501 91.056Z" fill="white"/>
<path opacity="0.09" d="M74.2999 62.322V82.5C70.7599 85.74 66.4999 87.63 61.9399 87.63C55.5799 87.63 49.8439 83.976 45.7759 78.096V62.322H74.2999Z" fill="black"/>
<path d="M86.3001 49.2C86.2727 50.4634 86.1665 51.7238 85.9821 52.974C85.3821 57.468 84.3981 61.098 81.0141 61.068C77.9001 72.852 69.6861 81.27 60.0141 81.27C50.3421 81.27 42.1521 72.87 39.0441 61.068C35.6601 61.098 34.6821 57.468 34.0761 52.974C33.7506 51.112 33.686 49.2138 33.8841 47.334C34.1241 45.852 34.7361 44.724 35.9601 44.13C36.4018 43.9216 36.8736 43.7839 37.3581 43.722C37.5201 43.722 37.6821 43.686 37.8381 43.68C37.9101 42.24 38.0061 40.842 38.1561 39.48C38.3279 37.7259 38.6206 35.9858 39.0321 34.272C39.325 33.0238 39.7142 31.8001 40.1961 30.612C40.9824 28.6409 42.1416 26.84 43.6101 25.308C46.3821 22.788 51.0621 20.262 58.5561 19.974C59.0361 19.974 59.5221 19.974 60.0141 19.974C73.0521 19.974 78.5061 25.272 80.7621 33.336C80.8041 33.486 80.8461 33.63 80.8821 33.78C81.0261 34.38 81.1581 34.932 81.2781 35.52C81.6348 37.3033 81.8832 39.1066 82.0221 40.92C82.0941 41.814 82.1481 42.72 82.1961 43.662C82.3521 43.662 82.5081 43.662 82.6761 43.704C83.2464 43.7487 83.7983 43.9261 84.2879 44.222C84.7775 44.5178 85.1912 44.9239 85.4961 45.408C86.1025 46.5759 86.3804 47.8865 86.3001 49.2Z" fill="white"/>
<path opacity="0.07" d="M85.9519 52.998C85.3519 57.492 84.3679 61.122 80.9839 61.092C77.8699 72.876 69.6559 81.294 59.9839 81.294C58.9488 81.2959 57.916 81.1975 56.8999 81C70.3399 78.648 80.3299 62.892 79.6579 44.208C79.4179 37.392 78.5599 31.008 76.6939 25.662C78.7456 27.9832 80.1906 30.7763 80.8999 33.792C81.0439 34.392 81.1759 34.944 81.2959 35.532C81.8096 38.2286 82.1165 40.9606 82.2139 43.704C82.3699 43.704 82.5259 43.704 82.6939 43.746C83.2642 43.7907 83.8161 43.9681 84.3058 44.264C84.7954 44.5598 85.2091 44.9659 85.5139 45.45C86.5159 47.142 86.3719 49.896 85.9519 52.998Z" fill="black"/>
<path opacity="0.07" d="M80.7559 33.348C80.5159 32.922 80.2639 32.502 80.0239 32.076C78.8599 30.03 77.0239 28.242 74.7499 27.654C72.3499 27.054 69.7999 27.81 67.4359 28.608C65.0795 29.3785 62.6128 29.7575 60.1339 29.73C57.655 29.7562 55.1885 29.3772 52.8319 28.608C50.4679 27.81 47.9419 27.03 45.5239 27.654C43.2379 28.254 41.4199 30.054 40.2559 32.076C39.8359 32.814 39.3979 33.552 39.0259 34.308C39.3188 33.0598 39.708 31.8361 40.1899 30.648C40.9762 28.6769 42.1354 26.876 43.6039 25.344C46.3759 22.824 51.0559 20.298 58.5499 20.01C59.0299 20.01 59.5159 20.01 60.0079 20.01C73.0459 19.986 78.4999 25.284 80.7559 33.348Z" fill="black"/>
<path d="M85.5079 42.12C84.6019 44.19 83.4739 46.218 82.8319 48.378C82.7908 48.5345 82.6991 48.6729 82.571 48.7717C82.4429 48.8705 82.2857 48.9241 82.1239 48.9241C81.9622 48.9241 81.8049 48.8705 81.6769 48.7717C81.5488 48.6729 81.457 48.5345 81.4159 48.378C79.4899 41.4 83.3359 27 73.6999 24.534C71.4559 23.934 69.1039 24.678 66.9079 25.422C62.4898 26.8062 57.754 26.8062 53.3359 25.422C51.1399 24.678 48.7939 23.958 46.5499 24.534C42.4459 25.59 40.4539 29.682 39.8119 33.534C39.488 35.5184 39.4516 37.5392 39.7039 39.534C40.0519 42.378 39.4159 45.468 38.7199 48.234C38.6641 48.4296 38.546 48.6017 38.3836 48.7242C38.2212 48.8467 38.0233 48.9129 37.8199 48.9129C37.6165 48.9129 37.4186 48.8467 37.2563 48.7242C37.0939 48.6017 36.9758 48.4296 36.9199 48.234C36.7842 47.768 36.7135 47.2854 36.7099 46.8C36.7586 45.1935 36.2849 43.6144 35.3599 42.3C35.283 42.1886 35.1988 42.0824 35.1079 41.982C34.4299 41.202 33.5179 40.638 33.1039 39.582C32.8164 38.7773 32.785 37.9033 33.0139 37.08C33.3319 35.772 34.0219 34.632 34.2859 33.306C34.8319 30.534 33.5299 27.768 32.3539 25.194C31.1779 22.62 30.0739 19.71 31.0099 17.04C31.7179 15.018 33.4519 13.56 35.1139 12.24L39.3499 8.79001C41.5999 6.96601 43.3999 4.80001 46.0639 3.63001C48.3952 2.63675 50.8981 2.10884 53.4319 2.07601C54.6664 2.06383 55.9005 2.12394 57.1279 2.25601C58.1479 2.36401 59.2939 2.71801 60.3079 2.45401C62.4799 1.88401 64.2559 1.18801 66.5779 1.39801C68.7581 1.58904 70.8459 2.36652 72.6199 3.64801C74.6839 5.17201 76.2199 7.30201 78.1819 8.94601C78.8119 9.46801 79.4779 9.94201 80.1559 10.404C81.7159 11.472 83.3239 12.468 84.5779 13.86C86.4799 15.966 87.3919 18.786 87.9079 21.576C89.1784 28.51 88.3424 35.6656 85.5079 42.12Z" fill="#7C7C7C"/>
<path d="M80.1559 10.404C77.1851 10.1219 74.2502 9.54093 71.3959 8.67001C65.3359 6.81601 57.8179 2.97001 51.8839 7.31401C49.0999 9.36601 47.6299 12.996 44.3479 14.286C41.8879 15.252 38.5999 14.784 37.8739 18.324C37.7043 19.27 37.7619 20.2427 38.0419 21.162C39.5659 26.694 37.8859 30.888 35.6419 36.162C34.8396 37.9997 34.6523 40.0473 35.1079 42C34.4299 41.22 33.5179 40.656 33.1039 39.6C32.8164 38.7953 32.785 37.9213 33.0139 37.098C33.3319 35.79 34.0219 34.65 34.2859 33.324C34.8319 30.552 33.5299 27.786 32.3539 25.212C31.1779 22.638 30.0739 19.728 31.0099 17.058C31.7179 15.036 33.4519 13.578 35.1139 12.258L39.3499 8.80801C41.5999 6.96601 43.3999 4.80001 46.0639 3.63001C48.3952 2.63675 50.8981 2.10884 53.4319 2.07601C54.6664 2.06383 55.9005 2.12394 57.1279 2.25601C58.1479 2.36401 59.2939 2.71801 60.3079 2.45401C62.4799 1.88401 64.2559 1.18801 66.5779 1.39801C68.7581 1.58904 70.8459 2.36652 72.6199 3.64801C74.6839 5.17201 76.2199 7.30201 78.1819 8.94601C78.8119 9.46801 79.4779 9.94201 80.1559 10.404Z" fill="#949494"/>
</g>
<defs>
<clipPath id="clip0_4001_2524">
<rect width="120" height="129" fill="white" transform="translate(0.5)"/>
</clipPath>
</defs>
</svg>
