<svg width="18" height="18" viewBox="0 0 18 18" fill="none" xmlns="http://www.w3.org/2000/svg">
<path d="M11.6265 3.36455L14.6355 6.37347M12.8473 2.1267C13.046 1.92801 13.2819 1.7704 13.5415 1.66287C13.8011 1.55534 14.0793 1.5 14.3603 1.5C14.6413 1.5 14.9195 1.55534 15.1791 1.66287C15.4387 1.7704 15.6746 1.92801 15.8733 2.1267C16.072 2.32538 16.2296 2.56126 16.3371 2.82086C16.4447 3.08045 16.5 3.35869 16.5 3.63968C16.5 3.92066 16.4447 4.1989 16.3371 4.45849C16.2296 4.71809 16.072 4.95397 15.8733 5.15266L5.66069 15.3653L1.5 16.5L2.63473 12.3393L12.8473 2.1267Z" stroke="#313131" stroke-width="1.5" stroke-linecap="round" stroke-linejoin="round"/>
</svg>
